<?xml version="1.0" encoding="utf-8"?>
<!-- Generator: Adobe Illustrator 18.0.0, SVG Export Plug-In . SVG Version: 6.00 Build 0)  -->
<!DOCTYPE svg PUBLIC "-//W3C//DTD SVG 1.1//EN" "http://www.w3.org/Graphics/SVG/1.1/DTD/svg11.dtd">
<svg version="1.1" id="图层_1" xmlns="http://www.w3.org/2000/svg" xmlns:xlink="http://www.w3.org/1999/xlink" x="0px" y="0px"
	 width="230.5px" height="158.5px" viewBox="0 0 230.5 158.5" enable-background="new 0 0 230.5 158.5" xml:space="preserve">
<g opacity="0.65">
	<g>
		<path fill="#FFBD76" stroke="#FFFFFF" stroke-width="3" stroke-miterlimit="10" d="M222.6,81.3c0,3.8,2.8,30.8-4.1,38.9
			c-4.1,4.9-34,28.8-35.1,21c-1.1-7.3,4.5-31.3,4.5-35c0-13.7,0.1,4,0.4-10.8c0.1-6.5-0.7-14.2-2.9-14.2c-8,0-14.2-11.3-14.2-30
			s6.5-33.9,14.5-33.9c3.8,0,24.6,13.5,27.1,19.1C215.7,42.7,222.6,71,222.6,81.3z"/>
		<path fill="#FFBD76" stroke="#FFFFFF" stroke-width="3" stroke-miterlimit="10" d="M183.4,81.3c0,0,3.7,1.2,14-5.8"/>
		<path fill="#FFBD76" stroke="#FFFFFF" stroke-width="3" stroke-miterlimit="10" d="M186.3,105.5c0,0,2.7-4.7,11.1-5.1"/>
	</g>
	<path fill="#006D94" stroke="#FFFFFF" stroke-width="4" stroke-miterlimit="10" d="M169.8,9.1H50c-14.4,0-26.2,12.4-26.2,27.8
		l12,107.1c0,15.4,11.7,27.8,26.2,27.8h94.8c14.5,0,26.2-12.5,26.2-27.8l9.1-76.3l-3.3-25c0-11,4.5-17.2,3.3-20.4
		C188.3,12,180.9,9.1,169.8,9.1z"/>
	<g>
		<path fill="#FFBD76" stroke="#FFFFFF" stroke-width="4" stroke-miterlimit="10" d="M152.2,22c0,23-19.2,42.8-42.8,42.8
			S66.7,45,66.7,22C66.7-2,152.2-2,152.2,22z"/>
		<path opacity="0.5" fill="none" stroke="#352515" stroke-width="2" stroke-miterlimit="10" enable-background="new    " d="
			M128.1,55.1c0,0-19.5,1.6-11.8-3.1s11.8,0,11.8,0s-7.7,9.4-13.6,5.9s-9.4-13.3,3-12.9c12.4,0.4-13,15.6-13.6,6.8s-0.6-9.2,5.9-6.8
			s7.5,16-10.1,14.9s-6.6-7.8,0-9.8s28.4-12.9,28.4-3.9"/>
	</g>
	<g>
		<path fill="#FFBD76" stroke="#FFFFFF" stroke-width="3" stroke-miterlimit="10" d="M54.9,51.5c0.9,5.3,1.2,10.4,0.6,14.9
			c-0.3,2.7-1.4,13.6,3.9,25.4c6.5,14.4,8,33.5,8.5,48.3c0.4,13.2,11.8,20.1,8.9,20.6C73.3,161.3,32,181,22,166.5
			c-4.7-6.8-5.9-37.9-8.4-46.9c-4.6-16.2,6-45.5,3.4-48.4c-4.4-4.9-7.6-10.9-8.7-17c-2.6-15.7,10-33.8,23.2-36S52.2,35.8,54.9,51.5z
			"/>
		<path fill="#FFBD76" stroke="#FFFFFF" stroke-width="3" stroke-miterlimit="10" d="M66.5,120.6c0,0-1,19.7-16.3,25.3"/>
		<path fill="#FFBD76" stroke="#FFFFFF" stroke-width="2" stroke-miterlimit="10" d="M20.2,95.5c0,0,4.2,49.5,23,50.8"/>
		<path fill="#FFBD76" stroke="#FFFFFF" stroke-width="3" stroke-miterlimit="10" d="M17,71.2c0,0,4,6.1,7,5.4"/>
	</g>
	<path opacity="0.7" fill="none" stroke="#FFFFFF" stroke-width="2" stroke-miterlimit="10" enable-background="new    " d="
		M63.3,102.9c0,0,20.5,7.7,31.3,6.9c5.3-0.4,12.3-2.7,18.5-2.9c5.1-0.1,9.4,1.8,14.5,2c8.1,0.3,33-3.4,36.5-7.5"/>
	<line fill="none" stroke="#FFFFFF" stroke-width="3" stroke-miterlimit="10" x1="68.1" y1="32.6" x2="86" y2="36.7"/>
	<line fill="none" stroke="#FFFFFF" stroke-width="3" stroke-miterlimit="10" x1="132" y1="34.7" x2="151.6" y2="29.1"/>
	<path fill="none" stroke="#FFFFFF" stroke-miterlimit="10" d="M20.2,39.3c0,0,1.4,6.3,6.5,5.3"/>
	<path fill="none" stroke="#FFFFFF" stroke-miterlimit="10" d="M15.7,49.7c4.5-6.7,11-2,11-2"/>
	<path fill="none" stroke="#FFFFFF" stroke-miterlimit="10" d="M18.3,42c0,0,1,2.6-2.7,2.7"/>
</g>
</svg>
