<?xml version="1.0" encoding="utf-8"?>
<!-- Generator: Adobe Illustrator 18.0.0, SVG Export Plug-In . SVG Version: 6.00 Build 0)  -->
<!DOCTYPE svg PUBLIC "-//W3C//DTD SVG 1.1//EN" "http://www.w3.org/Graphics/SVG/1.1/DTD/svg11.dtd">
<svg version="1.1" id="图层_1" xmlns="http://www.w3.org/2000/svg" xmlns:xlink="http://www.w3.org/1999/xlink" x="0px" y="0px"
	 width="253.4px" height="135.7px" viewBox="0 -54 253.4 135.7" enable-background="new 0 -54 253.4 135.7" xml:space="preserve">
<circle fill="#EFB467" stroke="#FFFFFF" stroke-width="4" stroke-miterlimit="10" cx="41.6" cy="41.6" r="37"/>
<circle fill="#EFB467" stroke="#FFFFFF" stroke-width="4" stroke-miterlimit="10" cx="212.9" cy="41.6" r="37"/>
<path fill="#669CB2" stroke="#FFFFFF" stroke-miterlimit="10" d="M250.4-32.6c0,3.1-2.9,5.7-6.5,5.7s-13.7-0.5-13.7-3.6
	s10.1-7.8,13.7-7.8S250.4-35.8,250.4-32.6z"/>
<path fill="#669CB2" stroke="#FFFFFF" stroke-miterlimit="10" d="M249.6-14.3c-1.4,1.5-3.9,1.5-5.6,0s-6.5-6.2-5.2-7.7
	s8.3,0.6,10.1,2.1C250.6-18.4,250.9-15.9,249.6-14.3z"/>
<path fill="#669CB2" stroke="#FFFFFF" stroke-miterlimit="10" d="M246.5-2.3c-1.5,0.5-3.1-0.5-3.6-2.2s-1.8-6.5-0.3-7
	c1.5-0.5,5.1,3.7,5.6,5.4S248-2.7,246.5-2.3z"/>
</svg>
