<?xml version="1.0" encoding="utf-8"?>
<!-- Generator: Adobe Illustrator 18.0.0, SVG Export Plug-In . SVG Version: 6.00 Build 0)  -->
<!DOCTYPE svg PUBLIC "-//W3C//DTD SVG 1.1//EN" "http://www.w3.org/Graphics/SVG/1.1/DTD/svg11.dtd">
<svg version="1.1" id="图层_1" xmlns="http://www.w3.org/2000/svg" xmlns:xlink="http://www.w3.org/1999/xlink" x="0px" y="0px"
	 width="231px" height="643px" viewBox="0 0 231 643" enable-background="new 0 0 231 643" xml:space="preserve">
<path fill="none" stroke="#FFFFFF" stroke-width="2" stroke-miterlimit="10" d="M171.5,121.4c0,0-18.3,3.3-34-10.7"/>
<path fill="none" stroke="#FFFFFF" stroke-width="2" stroke-miterlimit="10" d="M119.9,301c0,0,23.8,24.3,25.7,53.3"/>
<g>
	<g>
		<g>
			<path fill="#F2AF6B" stroke="#FFFFFF" stroke-width="3" stroke-miterlimit="10" d="M40.1,631.1C17.5,625.2,3.8,602,9.6,579.4
				l63.5-416c5.9-22.6,29.1-36.3,51.7-30.5l0,0c22.6,5.9,36.3,29.1,30.5,51.7l-63.5,416C88.5,638.6,40.1,631.1,40.1,631.1z"/>
			<path fill="#F9BE85" stroke="#FFFFFF" stroke-width="4" stroke-miterlimit="10" d="M188.2,142c-0.1,15.2-3.8,51.6-10.2,61.9
				c-5.3,8.5,45.3,363.7,46.9,374c12.7,80.3-85.2,71.7-97.9,17.1c-3.2-13.8-15.8-385.5-19-386.2c-30-7.1-43-23.2-57.6-54.5
				c-5.7-12.3-5.4-52.9,1.3-63.9c6.5-10.7-16.8-48.1-6.1-62.7c3.4-4.6,12.5-12,25.3-5C87.2,31.6,103,56.3,111,56.3
				c15.6,0,30.4-16.5,42.5-8.5c7.3,4.9,8.8,14.6,12.2,26.2c1.8,6,14.1,11.8,16.4,17.6C185.4,99.7,188.2,132.6,188.2,142z"/>
			<g opacity="0.4">
				<path fill="#CC8237" d="M92.5,81.2l-0.7-0.5c-9.1-7.6-10.5-21.5-3.1-30.9L105.1,29c7.3-9.4,20.9-10.9,30-3.2l0.7,0.5
					c9.1,7.6,10.5,21.5,3.1,30.9L122.5,78C115.2,87.4,101.6,88.9,92.5,81.2z"/>
			</g>
			<g>
				<path fill="#F9B76E" stroke="#FFFFFF" stroke-width="4" stroke-miterlimit="10" d="M90.1,75.6l-0.7-0.5
					c-9.7-7.8-11.2-22.2-3.3-31.9l17.4-21.5c7.8-9.7,22.2-11.2,31.9-3.3l0.7,0.5c9.7,7.8,11.2,22.2,3.3,31.9L122,72.3
					C114.2,82,99.8,83.5,90.1,75.6z"/>
				<path fill="#F9B76E" stroke="#FFFFFF" stroke-width="2.5" stroke-miterlimit="10" d="M96.3,72.5l-2.4-1.8
					c-6.3-4.5-7.8-13.3-3.3-19.6l3.4-4.7c2.1-3,6.3-3.6,9.2-1.6l14.5,10.4c3,2.1,3.6,6.3,1.6,9.2l-3.4,4.7
					C111.4,75.5,102.7,77,96.3,72.5z"/>
			</g>
			<g opacity="0.35">
				<g>
					<path fill="#CC8237" d="M74.4,109.8L33.1,75.9c-6.7-5.5-7.6-15.4-2.2-22.1l1-1.2c5.5-6.7,15.4-7.6,22.1-2.2l41.3,33.9
						c6.7,5.5,7.6,15.4,2.2,22.1l-1,1.2C90.9,114.3,80.9,115.3,74.4,109.8z"/>
				</g>
				<g>
					<path fill="#CC8237" d="M67.2,128.1L28,107.6c-6.1-3.3-8.8-11-6-17.4l0.7-1.7c3.2-7.1,11.4-9.9,18.4-6.4l39.2,20.6
						c6.1,3.3,8.8,11,6,17.4l-0.7,1.7C82.3,128.9,74,131.8,67.2,128.1z"/>
				</g>
				<g>
					<path fill="#CC8237" d="M63.4,152.6l-38.5-15.2c-6-2.3-9.3-9.7-7.3-16.4l0.5-1.8c2.3-7.4,9.7-11.4,16.5-8.7l38.5,15.2
						c6,2.3,9.3,9.7,7.3,16.4l-0.5,1.8C77.7,151.4,70.3,155.3,63.4,152.6z"/>
				</g>
				<g>
					<path fill="#CC8237" d="M69.2,172.6l-38.8-5c-6.1-0.7-10.7-6.4-10.3-12.5l0.1-1.6c0.5-6.9,6.4-11.7,13.3-10.9l38.8,4.9
						c6.1,0.7,10.7,6.4,10.3,12.5l-0.1,1.6C81.9,168.5,76,173.5,69.2,172.6z"/>
				</g>
			</g>
			<g>
				<path fill="#F9B76E" stroke="#FFFFFF" stroke-width="3" stroke-miterlimit="10" d="M65.4,106.2L24.1,72.3
					c-6.7-5.5-7.6-15.4-2.2-22.1l1-1.2c5.5-6.7,15.4-7.6,22.1-2.2l41.3,33.9c6.7,5.5,7.6,15.4,2.2,22.1l-1,1.2
					C81.9,110.7,71.9,111.7,65.4,106.2z"/>
				<path fill="#F9B76E" stroke="#FFFFFF" stroke-width="2.5" stroke-miterlimit="10" d="M84.5,101L84.5,101
					c-4.1,4.8-11.2,5.4-15.9,1.4l-4.9-4.1c-2.3-1.9-2.5-5.3-0.6-7.5l7.8-9.2c1.9-2.3,5.3-2.5,7.5-0.6l4.9,4.1
					C88,89,88.5,96.3,84.5,101z"/>
			</g>
			<g>
				<path fill="#F9B76E" stroke="#FFFFFF" stroke-width="3" stroke-miterlimit="10" d="M58.2,124.5L19,104c-6.1-3.3-8.8-11-6-17.4
					l0.7-1.7c3.2-7.1,11.4-9.9,18.4-6.4l39.2,20.6c6.1,3.3,8.8,11,6,17.4l-0.7,1.7C73.3,125.3,65,128.2,58.2,124.5z"/>
				<path fill="#F9B76E" stroke="#FFFFFF" stroke-width="2.5" stroke-miterlimit="10" d="M73.8,116l-0.2,0.4
					c-2.4,5-8.4,7.1-13.3,4.4l-4.2-2.3c-2.1-1.2-2.9-3.8-2-5.9l4.5-9.6c1.2-2.4,4-3.3,6.3-2l4.7,2.6C74.1,105.8,75.9,111.5,73.8,116
					z"/>
			</g>
			<g>
				<path fill="#F9B76E" stroke="#FFFFFF" stroke-width="3" stroke-miterlimit="10" d="M54.4,149l-38.5-15.2
					c-6-2.3-9.3-9.7-7.3-16.4l0.5-1.8c2.3-7.4,9.7-11.4,16.5-8.7l38.5,15.2c6,2.3,9.3,9.7,7.3,16.4l-0.5,1.8
					C68.7,147.8,61.3,151.7,54.4,149z"/>
				<path fill="#F9B76E" stroke="#FFFFFF" stroke-width="2.5" stroke-miterlimit="10" d="M68.2,138.5l-0.1,0.4
					c-1.7,5.4-7.1,8-11.9,6l-4.2-1.7c-2.1-0.9-3.1-3.4-2.4-5.6l3.2-10.1c0.9-2.5,3.4-3.8,5.7-2.9l4.7,1.9
					C67.4,128.5,69.7,133.8,68.2,138.5z"/>
			</g>
			<g>
				<path fill="#F9B76E" stroke="#FFFFFF" stroke-width="3" stroke-miterlimit="10" d="M60.2,169l-38.8-5
					c-6.1-0.7-10.7-6.4-10.3-12.5l0.1-1.6c0.5-6.9,6.4-11.7,13.3-10.9l38.8,4.9c6.1,0.7,10.7,6.4,10.3,12.5l-0.1,1.6
					C72.9,164.9,67,169.9,60.2,169z"/>
				<path fill="#F9B76E" stroke="#FFFFFF" stroke-width="2.5" stroke-miterlimit="10" d="M70.4,157v0.4c-0.4,5-4.8,8.4-9.7,7.8
					l-4.2-0.6c-2.1-0.3-3.6-2.2-3.4-4.3l0.7-9.4c0.2-2.3,2.3-3.9,4.6-3.7l4.8,0.7C67.5,148.6,70.8,152.6,70.4,157z"/>
			</g>
		</g>
	</g>
</g>
<path fill="none" stroke="#FFFFFF" stroke-width="2" stroke-miterlimit="10" d="M147.8,121.7c0,0-5.7,31.2-18.6,25.4"/>
<path fill="none" stroke="#FFFFFF" stroke-width="2" stroke-miterlimit="10" d="M142.5,154c9.5-8.4,18.1,0,18.1,0"/>
<path fill="none" stroke="#FFFFFF" stroke-width="2" stroke-miterlimit="10" d="M154.5,126.1c0,0-8.2,19.5,6.1,19.5"/>
</svg>
